<?xml version="1.0" encoding="UTF-8"?>
<svg xmlns="http://www.w3.org/2000/svg" xmlns:xlink="http://www.w3.org/1999/xlink" width="144px" height="144px" viewBox="0 0 144 144" version="1.1">
<defs>
<linearGradient id="linear0" gradientUnits="userSpaceOnUse" x1="-0.0277778" y1="0.32" x2="1" y2="0.675556" gradientTransform="matrix(144,0,0,143.625,0,0)">
<stop offset="0" style="stop-color:rgb(13.333333%,59.607843%,74.117647%);stop-opacity:1;"/>
<stop offset="1" style="stop-color:rgb(5.490196%,84.313725%,70.980392%);stop-opacity:1;"/>
</linearGradient>
</defs>
<g id="surface1">
<path style=" stroke:none;fill-rule:nonzero;fill:url(#linear0);" d="M 72 0 C 52.800781 0 40.800781 15.957031 36 47.875 C 43.199219 31.917969 51.601562 25.933594 61.199219 29.921875 C 66.675781 32.199219 70.59375 38.804688 74.925781 46.117188 C 81.984375 58.027344 90.15625 71.8125 108 71.8125 C 127.199219 71.8125 139.199219 55.855469 144 23.9375 C 136.800781 39.894531 128.398438 45.878906 118.800781 41.890625 C 113.324219 39.613281 109.40625 33.007812 105.074219 25.695312 C 98.015625 13.785156 89.84375 0 72 0 Z M 36 71.8125 C 16.800781 71.8125 4.800781 87.769531 0 119.6875 C 7.199219 103.730469 15.601562 97.746094 25.199219 101.734375 C 30.675781 104.011719 34.59375 110.617188 38.925781 117.929688 C 45.984375 129.839844 54.15625 143.625 72 143.625 C 91.199219 143.625 103.199219 127.667969 108 95.75 C 100.800781 111.710938 92.398438 117.695312 82.800781 113.703125 C 77.324219 111.425781 73.40625 104.820312 69.074219 97.511719 C 62.015625 85.597656 53.84375 71.8125 36 71.8125 Z M 36 71.8125 "/>
</g>
</svg>
